<?xml version="1.0" encoding="utf-8"?>
<!-- Generator: Adobe Illustrator 27.6.1, SVG Export Plug-In . SVG Version: 6.00 Build 0)  -->
<svg version="1.1" id="Layer_1" xmlns="http://www.w3.org/2000/svg" xmlns:xlink="http://www.w3.org/1999/xlink" x="0px" y="0px"
	 viewBox="0 0 512 512" style="enable-background:new 0 0 512 512;" xml:space="preserve">
<style type="text/css">
	.st0{fill:#BDB2FF;}
</style>
<g>
	<path class="st0" d="M499.1,97.4c-28.2,3.3-103.8,67.2-126.6,88.6c-58.8,55.1-176.2,206.5-254.8,214.9
		C23.4,411-17.5,312.2,57.9,262.1c39.4-26.2,134-38,130.2,29.5c-2.1,37.8-43.9,59.2-78,60.2c-6.3,0.2-14.7-3.1-19.3-1.8
		c-7.5,2.2-6,11.9-0.4,13.5c5.7,1.6,27.6,0,35.6,0c34.2,0,78-40.6,77.9-76C203.7,182,14.4,201.1,1,305.9
		C-9.7,390.2,64,429.6,138.7,410c72.8-19.1,185.2-158,244.8-213.1c24.8-23,51.3-44.6,79-64.1c3.5,4.4-11.2,15.4-13.8,18.7
		c-39.7,51-108.9,141.1-114.2,205.5c-1.1,14.2-3.8,44.2,10.9,51.8c24.4,12.7,59-27.5,78.3-45.3c2.4-2.2,2.6-5.8,0.5-8.3l0,0
		c-2.3-2.8-6.6-2.9-9.1-0.3c-10.3,11-20.9,21.6-32.6,30.5c-42.7,32.3-36.3,1.3-23-30.9c25.7-61.9,82.1-157.3,121.9-211.6
		c4.9-6.7,28.9-32.8,30.1-37C514.2,96.5,506,96.6,499.1,97.4z"/>
</g>
</svg>
